<svg width="16" height="18" viewBox="0 0 16 18" fill="none" xmlns="http://www.w3.org/2000/svg">
<path d="M9.34556 16.2027C9.20881 16.4452 9.01254 16.6465 8.7764 16.7864C8.54025 16.9263 8.27252 17 8 17C7.72748 17 7.45975 16.9263 7.2236 16.7864C6.98746 16.6465 6.79119 16.4452 6.65444 16.2027M12.6667 5.80085C12.6667 4.52759 12.175 3.30647 11.2998 2.40614C10.4247 1.5058 9.23768 1 8 1C6.76232 1 5.57534 1.5058 4.70017 2.40614C3.825 3.30647 3.33333 4.52759 3.33333 5.80085C3.33333 11.4018 1 13.0021 1 13.0021H15C15 13.0021 12.6667 11.4018 12.6667 5.80085Z" stroke="#F85A47" stroke-width="2" stroke-linecap="round" stroke-linejoin="round"/>
</svg>
