<svg width="13" height="13" viewBox="0 0 13 13" fill="none" xmlns="http://www.w3.org/2000/svg">
<path d="M12.75 2.36399C12.75 1.24093 11.759 0.25 10.636 0.25H2.11396C0.9909 0.25 -3.05176e-05 1.24093 -3.05176e-05 2.36399V10.886C-3.05176e-05 12.0091 0.9909 13 2.11396 13H6.408V8.17746H4.82251V6.06347H6.408V5.20466C6.408 3.75129 7.465 2.49611 8.78624 2.49611H10.5039V4.6101H8.78624C8.58805 4.6101 8.38986 4.80829 8.38986 5.20466V6.06347H10.5039V8.17746H8.38986V13H10.636C11.759 13 12.75 12.0091 12.75 10.886V2.36399Z" fill="#979899"/>
</svg>
