<svg width="13" height="13" viewBox="0 0 13 13" fill="none" xmlns="http://www.w3.org/2000/svg">
<path d="M10.9355 0H1.81439C0.784583 0 -3.05176e-05 0.784616 -3.05176e-05 1.81442V10.9356C-3.05176e-05 11.9654 0.784583 12.75 1.81439 12.75H10.9355C11.9654 12.75 12.75 11.9654 12.75 10.9356V1.81442C12.75 0.784616 11.9654 0 10.9355 0ZM6.37497 10.2C8.48362 10.2 10.2 8.53269 10.2 6.52211C10.2 6.17885 10.1509 5.78654 10.0529 5.49231H11.1317V10.6904C11.1317 10.9356 10.9355 11.1808 10.6413 11.1808H2.10862C1.86343 11.1808 1.61824 10.9846 1.61824 10.6904V5.44327H2.74613C2.64805 5.78654 2.59901 6.12981 2.59901 6.47308C2.54997 8.53269 4.26632 10.2 6.37497 10.2ZM6.37497 8.72885C5.00189 8.72885 3.92305 7.65 3.92305 6.32596C3.92305 5.00192 5.00189 3.92308 6.37497 3.92308C7.74805 3.92308 8.82689 5.00192 8.82689 6.32596C8.82689 7.69904 7.74805 8.72885 6.37497 8.72885ZM11.0827 3.48173C11.0827 3.77596 10.8375 4.02115 10.5432 4.02115H9.17016C8.87593 4.02115 8.63074 3.77596 8.63074 3.48173V2.15769C8.63074 1.86346 8.87593 1.61827 9.17016 1.61827H10.5432C10.8375 1.61827 11.0827 1.86346 11.0827 2.15769V3.48173Z" fill="#979899"/>
</svg>
