<svg width="130" height="30" viewBox="0 0 130 30" fill="none" xmlns="http://www.w3.org/2000/svg">
<path d="M20.625 14.9996H30C30 6.71647 23.2833 0 15 0C6.71667 0 0 6.71647 0 14.9996V29.9991H14.9991C23.2832 29.9991 29.9991 23.2845 29.9991 15.0004L20.625 14.9996V19.3772C20.625 19.8739 20.4274 20.3503 20.0758 20.7015C19.7242 21.0527 19.2473 21.25 18.75 21.25H11.25C10.7528 21.25 10.2759 21.0527 9.92423 20.7015C9.5726 20.3503 9.37506 19.8739 9.37506 19.3772V13.9213C9.37294 13.6553 9.42759 13.3919 9.53535 13.1486C9.64312 12.9053 9.80154 12.6878 10.0001 12.5105L13.75 9.22689C14.0938 8.91978 14.5388 8.75 15 8.75C15.4612 8.75 15.9062 8.91978 16.25 9.22689L20 12.5105C20.1977 12.6871 20.3557 12.9036 20.4634 13.1457C20.5711 13.3879 20.6262 13.6501 20.625 13.915V14.9996Z" fill="#F85A47"/>
<path d="M19.375 14.9996V13.915C19.3749 13.8264 19.3559 13.7388 19.3192 13.6581C19.2826 13.5773 19.2292 13.5053 19.1625 13.4468L15.4125 10.1695C15.2985 10.0694 15.1518 10.0142 15 10.0142C14.8482 10.0142 14.7016 10.0694 14.5875 10.1695L10.8375 13.4468C10.7709 13.5053 10.7175 13.5773 10.6808 13.6581C10.6442 13.7388 10.6252 13.8264 10.6251 13.915V19.3772C10.6251 19.5428 10.6909 19.7016 10.8081 19.8187C10.9253 19.9357 11.0843 20.0015 11.25 20.0015H12.5V16.8802C12.5 16.3835 12.6976 15.9072 13.0492 15.556C13.4008 15.2048 13.8777 15.0075 14.375 15.0075H15.625C16.1223 15.0075 16.5992 15.2048 16.9508 15.556C17.3025 15.9072 17.5 16.3835 17.5 16.8802V20.0015H18.75C18.9158 20.0015 19.0747 19.9357 19.1919 19.8187C19.3091 19.7016 19.375 19.5428 19.375 19.3772V14.9996Z" fill="#F85A47"/>
<path d="M13.75 16.8802V20.0015H16.25V16.8802C16.25 16.7147 16.1842 16.5559 16.067 16.4388C15.9497 16.3217 15.7908 16.256 15.625 16.256H14.375C14.2093 16.256 14.0503 16.3217 13.9331 16.4388C13.8159 16.5559 13.75 16.7147 13.75 16.8802Z" fill="#F85A47"/>
<path d="M40 24.6927V5H44.7517V12.905H54.5901V5H59.3722V24.6927H54.5901V16.5084H44.7517V24.6927H40Z" fill="#F85A47"/>
<path d="M70.7427 25C69.0979 25 67.6663 24.702 66.4479 24.1061C65.2498 23.4916 64.3157 22.635 63.6456 21.5363C62.9958 20.4376 62.6709 19.1248 62.6709 17.5978C62.6709 16.0894 62.9958 14.7858 63.6456 13.6872C64.3157 12.5885 65.2498 11.7412 66.4479 11.1453C67.6663 10.5493 69.0979 10.2514 70.7427 10.2514C72.3875 10.2514 73.8191 10.5493 75.0375 11.1453C76.2559 11.7412 77.1899 12.5885 77.8398 13.6872C78.5099 14.7858 78.8449 16.0894 78.8449 17.5978C78.8449 19.1248 78.5099 20.4376 77.8398 21.5363C77.1899 22.635 76.2559 23.4916 75.0375 24.1061C73.8191 24.702 72.3875 25 70.7427 25ZM70.7427 21.8156C71.7986 21.8156 72.6312 21.4711 73.2404 20.7821C73.8699 20.0931 74.1846 19.0317 74.1846 17.5978C74.1846 16.1639 73.8699 15.1117 73.2404 14.4413C72.6312 13.771 71.7986 13.4358 70.7427 13.4358C69.6868 13.4358 68.844 13.771 68.2145 14.4413C67.6054 15.1117 67.3008 16.1639 67.3008 17.5978C67.3008 19.0317 67.6054 20.0931 68.2145 20.7821C68.844 21.4711 69.6868 21.8156 70.7427 21.8156Z" fill="#F85A47"/>
<path d="M87.4197 25C85.4906 25 84.059 24.5158 83.125 23.5475C82.1909 22.5605 81.7238 21.0708 81.7238 19.0782V10.5307H86.3232V19.0782C86.3232 19.9721 86.5161 20.6331 86.9019 21.0615C87.3081 21.4898 87.9274 21.7039 88.76 21.7039C89.6738 21.7039 90.4251 21.4153 91.014 20.838C91.6232 20.2421 91.9277 19.4507 91.9277 18.4637V10.5307H96.5271V24.6927H92.0496V21.9832H92.476C92.009 22.933 91.3389 23.6778 90.4657 24.2179C89.5925 24.7393 88.5772 25 87.4197 25Z" fill="#F85A47"/>
<path d="M99.8601 24.6927V21.9553L109.059 12.6816V13.6872H99.8601V10.5307H113.201V13.2961L103.881 22.6536L103.85 21.5642H113.506V24.6927H99.8601Z" fill="#F85A47"/>
<path d="M123.939 25C122.152 25 120.618 24.702 119.339 24.1061C118.06 23.5102 117.085 22.6629 116.415 21.5642C115.745 20.4469 115.41 19.1341 115.41 17.6257C115.41 16.1546 115.725 14.8696 116.354 13.7709C117.004 12.6723 117.897 11.8156 119.035 11.2011C120.192 10.568 121.542 10.2514 123.086 10.2514C124.609 10.2514 125.878 10.5493 126.893 11.1453C127.929 11.7412 128.7 12.5791 129.208 13.6592C129.736 14.7207 130 15.959 130 17.3743V18.352H119.187V16.257H126.649L126.132 16.648C126.132 15.4749 125.868 14.5903 125.34 13.9944C124.832 13.3799 124.091 13.0726 123.116 13.0726C122.385 13.0726 121.766 13.2402 121.258 13.5754C120.771 13.892 120.395 14.3669 120.131 15C119.887 15.6145 119.766 16.378 119.766 17.2905V17.7374C119.766 19.1155 120.131 20.1397 120.862 20.8101C121.613 21.4804 122.69 21.8156 124.091 21.8156C124.923 21.8156 125.705 21.7225 126.436 21.5363C127.188 21.3315 127.898 21.0149 128.568 20.5866L129.848 23.3799C129.076 23.9013 128.183 24.3017 127.167 24.581C126.172 24.8603 125.096 25 123.939 25Z" fill="#F85A47"/>
</svg>
