<svg width="22" height="13" viewBox="0 0 22 13" fill="none" xmlns="http://www.w3.org/2000/svg">
<path fill-rule="evenodd" clip-rule="evenodd" d="M11 11.4472C9.83492 12.4155 8.32359 13 6.67213 13C2.98721 13 0 10.0899 0 6.5C0 2.91015 2.98721 0 6.67213 0C8.32359 0 9.83492 0.584517 11 1.55277C12.1651 0.584517 13.6764 0 15.3279 0C19.0128 0 22 2.91015 22 6.5C22 10.0899 19.0128 13 15.3279 13C13.6764 13 12.1651 12.4155 11 11.4472Z" fill="#979899"/>
<path fill-rule="evenodd" clip-rule="evenodd" d="M11 11.4472C12.4346 10.255 13.3442 8.48099 13.3442 6.5C13.3442 4.51901 12.4346 2.74499 11 1.55277C12.1651 0.584517 13.6764 0 15.3279 0C19.0128 0 22 2.91015 22 6.5C22 10.0899 19.0128 13 15.3279 13C13.6764 13 12.1651 12.4155 11 11.4472Z" fill="#ABA8A8"/>
<path fill-rule="evenodd" clip-rule="evenodd" d="M11 11.4472C12.4346 10.255 13.3443 8.48095 13.3443 6.49996C13.3443 4.51897 12.4346 2.74495 11 1.55273C9.56542 2.74495 8.65576 4.51897 8.65576 6.49996C8.65576 8.48095 9.56542 10.255 11 11.4472Z" fill="#979899"/>
</svg>
