<svg width="14" height="14" viewBox="0 0 14 14" fill="none" xmlns="http://www.w3.org/2000/svg">
<path d="M13.725 7.70346C13.6241 7.61758 13.5017 7.5626 13.3718 7.54479C13.242 7.52697 13.1099 7.54704 12.9906 7.60269C12.2509 7.95098 11.4467 8.13023 10.6333 8.12812C9.1286 8.12625 7.68564 7.51232 6.61904 6.4202C5.55244 5.32807 4.94871 3.84633 4.93948 2.29805C4.94267 1.81281 5.00136 1.32964 5.11435 0.858523C5.13833 0.732953 5.12933 0.603075 5.0883 0.482271C5.04726 0.361467 4.97567 0.254104 4.88089 0.171245C4.78611 0.0883864 4.67158 0.0330269 4.54909 0.0108703C4.4266 -0.0112863 4.30059 0.000561214 4.18403 0.0451924C3.08747 0.552559 2.13424 1.33843 1.4139 2.32898C0.693559 3.31954 0.229753 4.48225 0.0660523 5.70791C-0.0976489 6.93356 0.044128 8.18192 0.478064 9.33571C0.912 10.4895 1.62385 11.5108 2.54675 12.3038C3.46964 13.0967 4.57328 13.6353 5.75399 13.8688C6.9347 14.1023 8.15372 14.0232 9.29654 13.6388C10.4394 13.2544 11.4685 12.5774 12.2872 11.6713C13.1059 10.7653 13.6873 9.65997 13.9768 8.45921C14.0121 8.32173 14.007 8.17658 13.9622 8.04208C13.9174 7.90758 13.8348 7.78975 13.725 7.70346ZM7.0799 12.5187C5.906 12.5101 4.76335 12.1285 3.8084 11.4259C2.85346 10.7233 2.13291 9.73415 1.7454 8.5939C1.3579 7.45364 1.32239 6.218 1.64374 5.05618C1.96508 3.89435 2.62758 2.86313 3.54051 2.10371V2.29805C3.54236 4.23311 4.29023 6.08838 5.61998 7.45668C6.94973 8.82498 8.75274 9.59453 10.6333 9.59643C11.127 9.5983 11.6196 9.54521 12.1022 9.43809C11.6195 10.3777 10.8966 11.164 10.0116 11.7119C9.12649 12.2599 8.11282 12.5488 7.0799 12.5475V12.5187Z" fill="#F85A47"/>
</svg>
