<svg width="14" height="14" viewBox="0 0 14 14" fill="none" xmlns="http://www.w3.org/2000/svg">
<path fill-rule="evenodd" clip-rule="evenodd" d="M5.48203 5.2111C5.55895 5.32621 5.6 5.46155 5.6 5.6C5.6 5.78565 5.52625 5.9637 5.39498 6.09497C5.2637 6.22625 5.08565 6.3 4.9 6.3C4.76156 6.3 4.62622 6.25894 4.5111 6.18203C4.39599 6.10511 4.30627 5.99579 4.25329 5.86788C4.2003 5.73997 4.18644 5.59922 4.21345 5.46344C4.24046 5.32765 4.30713 5.20292 4.40503 5.10502C4.50292 5.00713 4.62765 4.94046 4.76344 4.91345C4.89923 4.88644 5.03997 4.9003 5.16788 4.95328C5.29579 5.00626 5.40511 5.09598 5.48203 5.2111ZM8.49138 8.35246C8.58264 8.365 8.67053 8.39542 8.75 8.442C8.91011 8.53434 9.0272 8.68626 9.07573 8.86461C9.12425 9.04296 9.10026 9.23327 9.009 9.394C8.80597 9.74736 8.51333 10.0409 8.1606 10.2451C7.80787 10.4492 7.40754 10.5567 7 10.5567C6.59246 10.5567 6.19213 10.4492 5.8394 10.2451C5.48668 10.0409 5.19403 9.74736 4.991 9.394C4.89974 9.23327 4.87576 9.04296 4.92428 8.86461C4.9728 8.68626 5.08989 8.53434 5.25 8.442C5.32948 8.39542 5.41737 8.365 5.50862 8.35246C5.59988 8.33992 5.69272 8.34551 5.78181 8.36893C5.8709 8.39234 5.9545 8.4331 6.02781 8.48888C6.10111 8.54467 6.16269 8.61437 6.209 8.694C6.28847 8.83371 6.40352 8.94989 6.54246 9.0307C6.6814 9.11152 6.83927 9.15409 7 9.15409C7.16074 9.15409 7.3186 9.11152 7.45754 9.0307C7.59648 8.94989 7.71153 8.83371 7.791 8.694C7.83732 8.61437 7.89889 8.54467 7.9722 8.48888C8.0455 8.4331 8.1291 8.39234 8.21819 8.36893C8.30728 8.34551 8.40012 8.33992 8.49138 8.35246ZM8.7111 5.01797C8.82622 4.94105 8.96155 4.9 9.1 4.9C9.28565 4.9 9.4637 4.97375 9.59498 5.10502C9.72625 5.2363 9.8 5.41435 9.8 5.6C9.8 5.73845 9.75895 5.87378 9.68203 5.9889C9.60511 6.10401 9.49579 6.19373 9.36788 6.24671C9.23997 6.2997 9.09923 6.31356 8.96344 6.28655C8.82765 6.25954 8.70292 6.19287 8.60503 6.09497C8.50713 5.99708 8.44046 5.87235 8.41345 5.73656C8.38644 5.60077 8.4003 5.46003 8.45329 5.33212C8.50627 5.20421 8.59599 5.09489 8.7111 5.01797ZM3.11101 1.17971C4.26215 0.410543 5.61553 0 7 0C7.91925 0 8.82951 0.18106 9.67879 0.532843C10.5281 0.884626 11.2997 1.40024 11.9497 2.05025C12.5998 2.70026 13.1154 3.47194 13.4672 4.32121C13.8189 5.17049 14 6.08075 14 7C14 8.38447 13.5895 9.73784 12.8203 10.889C12.0511 12.0401 10.9579 12.9373 9.67879 13.4672C8.3997 13.997 6.99224 14.1356 5.63437 13.8655C4.2765 13.5954 3.02922 12.9287 2.05026 11.9497C1.07129 10.9708 0.404603 9.7235 0.134506 8.36563C-0.13559 7.00776 0.00303299 5.6003 0.532846 4.32121C1.06266 3.04213 1.95987 1.94888 3.11101 1.17971ZM3.42322 11.3289C4.43114 12.1561 5.69612 12.6056 7 12.6C8.48521 12.6 9.9096 12.01 10.9598 10.9598C12.01 9.90959 12.6 8.48521 12.6 7C12.6 5.51479 12.01 4.0904 10.9598 3.0402C9.9096 1.99 8.67381 1.40295 7 1.4C4.75947 1.39605 2.68461 3.17309 2.06005 4.31767C1.43549 5.46225 1.22991 6.7889 1.47876 8.06882C1.72762 9.34875 2.4153 10.5017 3.42322 11.3289Z" fill="white"/>
</svg>
