<svg width="11" height="14" viewBox="0 0 11 14" fill="none" xmlns="http://www.w3.org/2000/svg">
<path d="M5.5 0C4.04131 0 2.64236 0.589996 1.61091 1.6402C0.579463 2.6904 0 4.11477 0 5.59998C0 9.37997 4.84688 13.65 5.05313 13.832C5.17765 13.9404 5.33613 14 5.5 14C5.66387 14 5.82235 13.9404 5.94687 13.832C6.1875 13.65 11 9.37997 11 5.59998C11 4.11477 10.4205 2.6904 9.38909 1.6402C8.35764 0.589996 6.95869 0 5.5 0ZM5.5 12.355C4.03562 10.955 1.375 7.93797 1.375 5.59998C1.375 4.48608 1.8096 3.41779 2.58318 2.63014C3.35677 1.84249 4.40598 1.4 5.5 1.4C6.59402 1.4 7.64323 1.84249 8.41682 2.63014C9.1904 3.41779 9.625 4.48608 9.625 5.59998C9.625 7.93797 6.96438 10.962 5.5 12.355ZM5.5 2.79999C4.9561 2.79999 4.42442 2.96421 3.97218 3.27187C3.51995 3.57954 3.16747 4.01684 2.95933 4.52847C2.75119 5.0401 2.69673 5.60309 2.80284 6.14623C2.90895 6.68938 3.17086 7.18829 3.55546 7.57987C3.94005 7.97146 4.43005 8.23813 4.9635 8.34617C5.49695 8.45421 6.04988 8.39876 6.55238 8.18684C7.05488 7.97491 7.48437 7.61603 7.78654 7.15557C8.08872 6.69512 8.25 6.15377 8.25 5.59998C8.25 4.85738 7.96027 4.14519 7.44454 3.62009C6.92882 3.09499 6.22935 2.79999 5.5 2.79999ZM5.5 6.99998C5.22805 6.99998 4.96221 6.91787 4.73609 6.76404C4.50997 6.6102 4.33374 6.39155 4.22967 6.13574C4.1256 5.87992 4.09837 5.59843 4.15142 5.32686C4.20447 5.05528 4.33543 4.80583 4.52773 4.61004C4.72003 4.41424 4.96503 4.28091 5.23175 4.22689C5.49847 4.17287 5.77494 4.20059 6.02619 4.30655C6.27744 4.41252 6.49218 4.59196 6.64327 4.82219C6.79436 5.05241 6.875 5.32309 6.875 5.59998C6.875 5.97128 6.73013 6.32738 6.47227 6.58993C6.21441 6.85248 5.86467 6.99998 5.5 6.99998Z" fill="#F85A47"/>
</svg>
