<svg width="14" height="14" viewBox="0 0 14 14" fill="none" xmlns="http://www.w3.org/2000/svg">
<path d="M14 2.15842C14.0006 1.73168 13.8744 1.31437 13.6376 0.959361C13.4007 0.604354 13.0638 0.327626 12.6695 0.164241C12.2752 0.000855758 11.8412 -0.0418344 11.4226 0.0415797C11.0041 0.124994 10.6196 0.330758 10.3181 0.632801L8.3512 2.59931L3.8084 1.08769C3.68745 1.04968 3.55844 1.04523 3.43516 1.07481C3.31188 1.10439 3.19895 1.1669 3.10842 1.25564L1.44249 2.90723C1.36356 2.98706 1.30499 3.08471 1.27173 3.19193C1.23848 3.29915 1.2315 3.4128 1.25141 3.52328C1.27131 3.63376 1.31751 3.73783 1.3861 3.82671C1.45468 3.91559 1.54365 3.98667 1.64549 4.03395L5.27133 5.67853L3.45141 7.49808L2.25446 6.89623C2.12523 6.8263 1.97726 6.79881 1.83153 6.81765C1.68579 6.83649 1.54969 6.90071 1.44249 7.0012L0.203546 8.26788C0.0731762 8.399 0 8.57638 0 8.76126C0 8.94614 0.0731762 9.12352 0.203546 9.25464L4.74636 13.7965C4.8775 13.9268 5.05491 14 5.23983 14C5.42476 14 5.60217 13.9268 5.73331 13.7965L7.00026 12.5578C7.10532 12.4539 7.17476 12.3193 7.19865 12.1735C7.22254 12.0277 7.19965 11.878 7.13326 11.746L6.53128 10.5493L8.3512 8.72977L9.99614 12.3549C10.0434 12.4567 10.1145 12.5456 10.2034 12.6142C10.2923 12.6828 10.3964 12.729 10.5069 12.7489C10.6174 12.7688 10.7311 12.7618 10.8383 12.7285C10.9456 12.6953 11.0432 12.6367 11.1231 12.5578L12.775 10.9062C12.8638 10.8157 12.9263 10.7028 12.9559 10.5796C12.9855 10.4563 12.981 10.3273 12.943 10.2064L11.4311 5.66454L13.37 3.68404C13.571 3.48428 13.7303 3.2465 13.8384 2.98457C13.9466 2.72264 14.0015 2.44179 14 2.15842ZM12.376 2.69728L10.1081 4.96471C10.0194 5.05522 9.95685 5.16812 9.92726 5.29138C9.89767 5.41464 9.90212 5.54361 9.94014 5.66454L11.4521 10.1994L10.8221 10.8292L9.17717 7.21115C9.13048 7.10839 9.05963 7.01845 8.97066 6.94899C8.88168 6.87953 8.77722 6.83262 8.66619 6.81225C8.55424 6.79182 8.439 6.79899 8.33045 6.83313C8.22189 6.86728 8.1233 6.92737 8.04322 7.0082L5.15934 9.91947C5.0558 10.0229 4.98729 10.1561 4.96343 10.3005C4.93958 10.4449 4.96158 10.5931 5.02634 10.7243L5.60032 11.9L5.20834 12.2919L1.68748 8.76476L2.10047 8.40085L3.29742 9.0027C3.42865 9.06745 3.57689 9.08945 3.72128 9.0656C3.86567 9.04175 3.99895 8.97325 4.10238 8.86973L7.00026 5.95846C7.08069 5.87868 7.14054 5.78057 7.17469 5.67256C7.20883 5.56455 7.21623 5.44986 7.19627 5.33836C7.1763 5.22686 7.12956 5.12186 7.06007 5.0324C6.99057 4.94294 6.90039 4.87168 6.79727 4.82475L3.15042 3.18016L3.7804 2.55032L8.31621 4.06194C8.43715 4.09995 8.56616 4.1044 8.68944 4.07482C8.81272 4.04523 8.92565 3.98273 9.01618 3.89398L11.2841 1.62655C11.3538 1.55524 11.4371 1.49858 11.5291 1.4599C11.621 1.42121 11.7198 1.40129 11.8196 1.40129C11.9193 1.40129 12.0181 1.42121 12.11 1.4599C12.202 1.49858 12.2853 1.55524 12.355 1.62655C12.428 1.69419 12.4858 1.77661 12.5244 1.86833C12.563 1.96004 12.5817 2.05894 12.579 2.15842C12.5828 2.25723 12.5668 2.35581 12.532 2.44835C12.4971 2.54089 12.4441 2.62552 12.376 2.69728Z" fill="white"/>
</svg>
