<svg width="14" height="14" viewBox="0 0 14 14" fill="none" xmlns="http://www.w3.org/2000/svg">
<path d="M13.9765 5.29317C13.9324 5.15933 13.8521 5.04178 13.7454 4.95476C13.6387 4.86775 13.5101 4.815 13.3753 4.80293L9.39775 4.19563L7.61518 0.412757C7.55793 0.289049 7.46856 0.184718 7.35729 0.111718C7.24602 0.0387177 7.11735 0 6.98603 0C6.85471 0 6.72605 0.0387177 6.61478 0.111718C6.50351 0.184718 6.41413 0.289049 6.35689 0.412757L4.57432 4.18831L0.596729 4.80293C0.46735 4.82218 0.345717 4.879 0.245632 4.96695C0.145546 5.0549 0.0710161 5.17045 0.0304993 5.30049C-0.00658871 5.42756 -0.00991692 5.56281 0.0208719 5.69172C0.0516606 5.82063 0.115404 5.93833 0.205261 6.03218L3.09233 8.95897L2.39328 13.115C2.36506 13.2529 2.3755 13.3963 2.42333 13.5281C2.47117 13.66 2.55437 13.7745 2.66293 13.858C2.77148 13.9414 2.90077 13.9903 3.03524 13.9987C3.16971 14.0071 3.30363 13.9746 3.42089 13.9052L6.98603 11.9516L10.5512 13.9052C10.6493 13.9632 10.7601 13.9934 10.8727 13.993C11.0208 13.9936 11.1652 13.9449 11.2852 13.854C11.3936 13.7727 11.4776 13.6606 11.5271 13.5309C11.5767 13.4013 11.5898 13.2595 11.5648 13.1223L10.8658 8.96628L13.7528 6.0395C13.8538 5.95 13.9283 5.83236 13.9679 5.70025C14.0075 5.56814 14.0105 5.42698 13.9765 5.29317ZM9.67737 8.21996C9.59646 8.3022 9.53576 8.40372 9.50046 8.51584C9.46516 8.62797 9.4563 8.74736 9.47465 8.86385L9.97796 11.937L7.34954 10.4736C7.24739 10.4207 7.13495 10.3932 7.02099 10.3932C6.90702 10.3932 6.79458 10.4207 6.69243 10.4736L4.06401 11.937L4.56732 8.86385C4.58567 8.74736 4.57681 8.62797 4.54151 8.51584C4.50621 8.40372 4.44551 8.3022 4.3646 8.21996L2.26745 6.02487L5.21045 5.57853C5.32369 5.56204 5.43135 5.51673 5.52397 5.44657C5.6166 5.37641 5.69137 5.28354 5.74173 5.1761L6.98603 2.38834L8.30024 5.18342C8.35061 5.29086 8.42537 5.38373 8.518 5.45389C8.61062 5.52405 8.71828 5.56936 8.83152 5.58585L11.7745 6.03218L9.67737 8.21996Z" fill="#F85A47"/>
<path d="M9.67737 8.21996C9.59646 8.3022 9.53576 8.40372 9.50046 8.51584C9.46516 8.62797 9.4563 8.74736 9.47465 8.86385L9.97796 11.937L7.34954 10.4736C7.24739 10.4207 7.13495 10.3932 7.02099 10.3932C6.90702 10.3932 6.79458 10.4207 6.69243 10.4736L4.06401 11.937L4.56732 8.86385C4.58567 8.74736 4.57681 8.62797 4.54151 8.51584C4.50621 8.40372 4.44551 8.3022 4.3646 8.21996L2.26745 6.02487L5.21045 5.57853C5.32369 5.56204 5.43135 5.51673 5.52397 5.44657C5.6166 5.37641 5.69137 5.28354 5.74173 5.1761L6.98603 2.38834L8.30024 5.18342C8.35061 5.29086 8.42537 5.38373 8.518 5.45389C8.61062 5.52405 8.71828 5.56936 8.83152 5.58585L11.7745 6.03218L9.67737 8.21996Z" fill="#F85A47"/>
</svg>
