<svg width="12" height="14" viewBox="0 0 12 14" fill="none" xmlns="http://www.w3.org/2000/svg">
<path d="M8.8421 2.04832C8.28603 2.04783 7.74028 2.2155 7.26316 2.53342C6.91722 1.64955 6.30972 0.924262 5.54181 0.478333C4.77391 0.0324039 3.89195 -0.107254 3.0428 0.0826144C2.19364 0.272483 1.42854 0.780419 0.874899 1.52184C0.321256 2.26326 0.0124844 3.19343 0 4.15744V6.9696C0.000906847 7.96572 0.318471 8.92935 0.896454 9.68982C1.47444 10.4503 2.27554 10.9585 3.15789 11.1246V13.297C3.15789 13.4834 3.22444 13.6622 3.34288 13.7941C3.46132 13.9259 3.62197 14 3.78947 14C3.95698 14 4.11762 13.9259 4.23607 13.7941C4.35451 13.6622 4.42105 13.4834 4.42105 13.297V11.1246C5.06446 11.0003 5.66876 10.6954 6.17684 10.2387C6.40233 10.6416 6.69877 10.9894 7.04828 11.2613C7.3978 11.5331 7.79316 11.7234 8.21053 11.8206V13.297C8.21053 13.4834 8.27707 13.6622 8.39551 13.7941C8.51396 13.9259 8.6746 14 8.8421 14C9.00961 14 9.17026 13.9259 9.2887 13.7941C9.40714 13.6622 9.47368 13.4834 9.47368 13.297V11.8206C10.187 11.6585 10.828 11.2271 11.2884 10.5993C11.7488 9.97157 12.0001 9.18604 12 8.37568V5.56352C12 4.63123 11.6673 3.73713 11.0751 3.0779C10.4829 2.41867 9.67963 2.04832 8.8421 2.04832ZM5.68421 5.56352V8.37568C5.69025 8.50993 5.7029 8.64371 5.72211 8.77641C5.38433 9.22422 4.92955 9.54369 4.42105 9.69037V7.67264C4.42105 7.48618 4.35451 7.30736 4.23607 7.17552C4.11762 7.04367 3.95698 6.9696 3.78947 6.9696C3.62197 6.9696 3.46132 7.04367 3.34288 7.17552C3.22444 7.30736 3.15789 7.48618 3.15789 7.67264V9.68333C2.61696 9.52787 2.13758 9.17719 1.79475 8.68617C1.45192 8.19515 1.26497 7.59148 1.26316 6.9696V4.15744C1.26151 3.60033 1.40856 3.05522 1.68564 2.59128C1.96273 2.12734 2.35737 1.76546 2.8195 1.55156C3.28163 1.33766 3.79042 1.28137 4.28133 1.38984C4.77224 1.49831 5.22314 1.76665 5.57684 2.16081C5.91875 2.54652 6.15151 3.03539 6.24632 3.56689C5.88122 4.15349 5.68516 4.84989 5.68421 5.56352ZM10.7368 8.37568C10.7357 8.81082 10.6138 9.23494 10.3876 9.58988C10.1615 9.94482 9.84224 10.2132 9.47368 10.3583V7.67264C9.47368 7.48618 9.40714 7.30736 9.2887 7.17552C9.17026 7.04367 9.00961 6.9696 8.8421 6.9696C8.6746 6.9696 8.51396 7.04367 8.39551 7.17552C8.27707 7.30736 8.21053 7.48618 8.21053 7.67264V10.3583C7.84197 10.2132 7.52274 9.94482 7.29659 9.58988C7.07045 9.23494 6.94847 8.81082 6.94737 8.37568V5.56352C6.94737 5.00415 7.14699 4.46769 7.50232 4.07215C7.85766 3.67661 8.33959 3.4544 8.8421 3.4544C9.34462 3.4544 9.82655 3.67661 10.1819 4.07215C10.5372 4.46769 10.7368 5.00415 10.7368 5.56352V8.37568Z" fill="white"/>
</svg>
