<svg width="15" height="13" viewBox="0 0 15 13" fill="none" xmlns="http://www.w3.org/2000/svg">
<path d="M14.95 2.175C14.425 2.4 13.825 2.55 13.225 2.625C13.825 2.25 14.35 1.65 14.575 0.975002C13.975 1.35 13.375 1.575 12.625 1.725C12.1 1.125 11.275 0.75 10.45 0.75C8.79998 0.75 7.44998 2.1 7.44998 3.75C7.44998 3.975 7.44998 4.2 7.52498 4.425C5.04998 4.275 2.79998 3.075 1.29998 1.275C1.07498 1.725 0.92498 2.25 0.92498 2.775C0.92498 3.825 1.44998 4.725 2.27498 5.25C1.74998 5.25 1.29998 5.1 0.92498 4.875C0.92498 6.3 1.97498 7.575 3.32498 7.8C3.09998 7.875 2.79998 7.875 2.49998 7.875C2.27498 7.875 2.12498 7.875 1.89998 7.8C2.27498 9 3.39998 9.9 4.74998 9.9C3.69998 10.725 2.42498 11.175 0.999985 11.175C0.774985 11.175 0.549985 11.175 0.249985 11.1C1.59998 11.925 3.17498 12.45 4.89998 12.45C10.45 12.45 13.45 7.875 13.45 3.9V3.525C14.05 3.3 14.575 2.775 14.95 2.175Z" fill="#979899"/>
</svg>
