<svg width="17" height="10" viewBox="0 0 17 10" fill="none" xmlns="http://www.w3.org/2000/svg">
<path d="M16.3546 8.83644C16.3546 8.77417 16.2924 8.77417 16.2924 8.71191C16.0433 8.21377 15.4829 7.5911 14.7357 6.90616C14.3621 6.59483 14.1753 6.34575 14.0507 6.22122C13.8639 5.97215 13.864 5.78536 13.9262 5.53629C13.9885 5.34948 14.2375 5.03814 14.6734 4.47774C14.9225 4.1664 15.047 3.9796 15.2338 3.7928C16.1678 2.54746 16.6037 1.73798 16.4792 1.36438L16.4169 1.30212C16.3546 1.23985 16.2924 1.17758 16.1678 1.17758C16.0433 1.11532 15.8565 1.11532 15.6697 1.17758H13.3035C13.2413 1.17758 13.2413 1.17758 13.1167 1.17758C13.0545 1.17758 12.9922 1.17758 12.9922 1.17758H12.9299H12.8677L12.8054 1.23984C12.7431 1.30211 12.7431 1.30211 12.7431 1.36438C12.4941 2.04932 12.1827 2.60972 11.8714 3.23239C11.6846 3.54373 11.4978 3.85507 11.311 4.10414C11.1242 4.35321 10.9996 4.54001 10.8751 4.66454C10.7506 4.78907 10.626 4.85134 10.5638 4.97588C10.5015 5.03814 10.377 5.10041 10.377 5.03815C10.3147 5.03815 10.2524 5.03814 10.2524 4.97588C10.1902 4.91361 10.1279 4.85134 10.0656 4.78907C10.0034 4.72681 10.0034 4.60227 9.9411 4.47774C9.9411 4.3532 9.9411 4.22867 9.9411 4.1664C9.9411 4.10413 9.9411 3.91734 9.9411 3.7928C9.9411 3.606 9.9411 3.48146 9.9411 3.4192C9.9411 3.23239 9.9411 2.98333 9.9411 2.73426C9.9411 2.48519 9.9411 2.29839 9.9411 2.17385C9.9411 2.04932 9.9411 1.86252 9.9411 1.73798C9.9411 1.55118 9.9411 1.42664 9.9411 1.36438C9.9411 1.30211 9.87885 1.17758 9.87885 1.11531C9.81658 1.05304 9.7543 0.990776 9.69204 0.928508C9.62977 0.866241 9.50524 0.866243 9.44297 0.803976C9.13164 0.741709 8.75804 0.679443 8.32217 0.679443C7.3259 0.679443 6.64095 0.741712 6.39188 0.866247C6.26735 0.928514 6.14282 0.990777 6.08055 1.11531C5.95601 1.23985 5.95601 1.30212 6.01828 1.30212C6.32961 1.36438 6.57869 1.48891 6.70322 1.67571L6.76549 1.80025C6.82776 1.86252 6.82775 1.98705 6.89001 2.17385C6.95228 2.36065 6.95228 2.54746 6.95228 2.79652C6.95228 3.17013 6.95228 3.54373 6.95228 3.7928C6.95228 4.10414 6.89001 4.29094 6.89001 4.47774C6.89001 4.66454 6.82776 4.78908 6.76549 4.85134C6.70322 4.97588 6.70322 5.03815 6.64095 5.03815C6.64095 5.03815 6.64094 5.10041 6.57868 5.10041C6.51641 5.10041 6.45415 5.16268 6.32961 5.16268C6.26735 5.16268 6.14282 5.10041 6.08055 5.03815C5.95601 4.97588 5.83148 4.85135 5.76921 4.72681C5.64468 4.60228 5.52014 4.41547 5.39561 4.1664C5.27107 3.91733 5.08426 3.66827 4.95973 3.29466L4.8352 3.0456C4.77294 2.92106 4.6484 2.67199 4.52387 2.36066C4.39933 2.04932 4.2748 1.80025 4.15026 1.48892C4.08799 1.36438 4.02573 1.30211 3.96347 1.23984H3.9012C3.9012 1.23984 3.83892 1.17758 3.77665 1.17758C3.71439 1.17758 3.65213 1.11531 3.58986 1.11531H1.34824C1.09917 1.11531 0.974636 1.17758 0.912369 1.23984L0.850098 1.30212C0.850098 1.30212 0.850098 1.36438 0.850098 1.42665C0.850098 1.48892 0.850101 1.55118 0.912369 1.67571C1.2237 2.42292 1.59731 3.17013 1.97091 3.91734C2.34451 4.60227 2.71812 5.22495 2.96719 5.66082C3.27852 6.09669 3.52759 6.53256 3.83892 6.90616C4.15026 7.27977 4.33706 7.52883 4.39933 7.65337C4.52386 7.7779 4.58612 7.84017 4.64839 7.90243L4.8352 8.08924C4.95974 8.21377 5.14654 8.40057 5.39561 8.58738C5.64467 8.77418 5.95601 8.96097 6.26734 9.14778C6.57868 9.33458 6.95229 9.45912 7.32589 9.58365C7.76176 9.70819 8.13536 9.77045 8.50896 9.70819H9.44297C9.62977 9.70819 9.75432 9.64592 9.87885 9.52138L9.9411 9.45911C9.9411 9.39684 10.0034 9.39685 10.0034 9.33458C10.0034 9.27231 10.0034 9.21005 10.0034 9.08552C10.0034 8.83645 10.0034 8.64964 10.0656 8.46284C10.1279 8.27604 10.1279 8.15151 10.1902 8.02697C10.2525 7.90244 10.3147 7.84017 10.377 7.7779C10.4392 7.71563 10.5015 7.65337 10.5015 7.65337H10.5638C10.6883 7.5911 10.8751 7.65337 10.9997 7.7779C11.1865 7.90243 11.3732 8.08924 11.4978 8.27604C11.6223 8.46284 11.8091 8.64964 12.0582 8.89871C12.3073 9.14778 12.4941 9.33458 12.6186 9.39685L12.8054 9.52138C12.9299 9.58365 13.0545 9.64592 13.2413 9.70819C13.4281 9.77045 13.5526 9.77045 13.6771 9.77045L15.7942 9.70819C15.981 9.70819 16.1678 9.64592 16.2924 9.58365C16.4169 9.52139 16.4792 9.45911 16.4792 9.33458C16.4792 9.27231 16.4792 9.14778 16.4792 9.08552C16.3546 8.96098 16.3546 8.89871 16.3546 8.83644Z" fill="#979899"/>
</svg>
