<svg width="13" height="13" viewBox="0 0 13 13" fill="none" xmlns="http://www.w3.org/2000/svg">
<path d="M13 5.2933C12.9319 4.85912 12.5576 4.56966 12.0471 4.56966C11.877 4.56966 11.7408 4.56966 11.5707 4.56966C11.2644 4.53348 11.1963 4.64203 11.1963 4.8953C11.1963 6.16166 11.1963 7.39184 11.1963 8.6582C11.1963 9.30947 10.5838 9.99692 9.86911 10.1416C7.62304 10.6844 5.37696 11.1909 3.13089 11.7336C2.89267 11.806 2.62042 11.806 2.34817 11.806C2.24607 11.806 2.07592 11.7336 2.04189 11.6251C2.00785 11.5527 2.10995 11.408 2.17801 11.3356C2.2801 11.2633 2.41623 11.1909 2.55236 11.1186C2.96073 10.9738 3.40314 10.8291 3.81151 10.6844C5.47905 10.1055 7.1466 9.52656 8.81414 8.91147C9.56283 8.6582 9.9712 8.11547 9.9712 7.42802C10.0052 5.25712 9.9712 3.05003 9.9712 0.879133C9.9712 0.517316 9.80105 0.227864 9.4267 0.0831371C8.98429 -0.0977713 8.57591 0.0469532 8.20157 0.227862C5.81937 1.42186 3.4712 2.61586 1.089 3.80985C0.408371 4.17167 0 4.67821 0 5.40184C0 7.4642 0 9.52656 0 11.5889C0 11.6975 -8.30844e-06 11.806 0.0340231 11.8784C0.272243 12.5658 0.884817 13 1.70157 13C3.36911 13 5.03665 13 6.70419 13C8.37173 13 10.0052 13 11.6728 13C12.0471 13 12.3534 12.9276 12.6257 12.6744C12.966 12.3849 12.966 11.9869 12.966 11.6251C12.966 9.84504 13 5.2933 13 5.2933ZM6.05759 4.64203C6.22775 4.17167 6.6021 3.88222 7.1466 3.80985C7.52095 3.77367 7.82722 3.99076 7.89529 4.35258C7.96335 4.8953 7.35078 5.54657 6.70419 5.54657C6.19371 5.54657 5.88743 5.14858 6.05759 4.64203Z" fill="#979899"/>
</svg>
